# xmcd
#
# Track frame offsets: 
#        150
#        16425
#        30492
#        46316
#        63431
#        77543
#        96108
#        135168
#
# Disc length: 2003 seconds
#
# Revision: 0
# Processed by: cddbd v1.5.2PL0 Copyright (c) Steve Scherf et al.
# Submitted via: ExactAudioCopy v1.3
#
DISCID=5507d108
DTITLE=Robert Jon and The Wreck - Take Me Higher
DYEAR=2019
DGENRE=Blues Rock
TTITLE0=Take Me Higher
TTITLE1=Going Down
TTITLE2=Makes Me Wanna Yell
TTITLE3=Goodbye Baby
TTITLE4=Something To Remember Me By
TTITLE5=Coming Home
TTITLE6=Cannonball
TTITLE7=Red, White, And Blood
EXTD=
EXTT0=
EXTT1=
EXTT2=
EXTT3=
EXTT4=
EXTT5=
EXTT6=
EXTT7=
PLAYORDER=
